<svg id="Layer_1" data-name="Layer 1" xmlns="http://www.w3.org/2000/svg" viewBox="0 0 378.8 34.7"><defs><style>.cls-1{isolation:isolate;}.cls-2{fill:none;stroke:#231f20;}</style></defs><title>Name</title><g class="cls-1"><path class="cls-2" d="M5.5,8.2H8.8V34.8H24.7v6H2.2V11.7A3.44,3.44,0,0,1,5.5,8.2Z" transform="translate(-1.7 -7.1)"/><path class="cls-2" d="M30.9,8.2h3.3V28.4q0,7.2,6.3,7.2t6.3-7.2V8.2h6.6V29.1c0,8-4.7,12.2-12.9,12.2-8.4,0-13-3.9-13-12.2V11.7A3.67,3.67,0,0,1,30.9,8.2Z" transform="translate(-1.7 -7.1)"/></g><g class="cls-1"><path class="cls-2" d="M71.3,41.3c-10,0-15-6.6-15-16.8C56.3,14,61.6,7.7,71.9,7.7q6,0,9.6,3a12.33,12.33,0,0,1,3.9,8.4h-4a3.26,3.26,0,0,1-3.1-2c-1.1-2.4-3.3-3.6-6.4-3.6-6.2,0-8.9,4.4-8.9,10.9s2.6,10.9,8.7,10.9c4.2,0,6.6-2.3,7.3-5.9h6.5C84.8,37,79.5,41.3,71.3,41.3Z" transform="translate(-1.7 -7.1)"/></g><g class="cls-1"><path class="cls-2" d="M106.1,8.2l11.7,32.6h-7.1l-2.2-6.7H96l-2.2,6.7H86.6L97.5,10.3a3.08,3.08,0,0,1,3.2-2.2h5.4V8.2ZM97.8,28.6h9l-4.5-13.9Z" transform="translate(-1.7 -7.1)"/><path class="cls-2" d="M141,31.7c0-1.6-1-2.6-3-3.2s-4.1-1.2-6.5-1.8c-6.4-1.6-9.6-4.6-9.6-8.9,0.1-6.9,4.2-10.2,12.3-10.2,7.7,0,11.7,3.4,12,10.1h-3.7a3.19,3.19,0,0,1-3-1.9c-1.1-1.9-3.1-2.8-5.9-2.8-3.5,0-5.2,1.3-5.3,3.8q0,3.15,6.3,4.5c2.4,0.6,5,1.3,7.8,2.3,3.6,1.2,5.4,3.9,5.2,8.1-0.4,6.4-4.7,9.6-13,9.6-8.6,0-13-3.6-13.2-10.7h6.5c0.2,3.5,2.4,5.2,6.7,5.2S141,34.4,141,31.7Z" transform="translate(-1.7 -7.1)"/><path class="cls-2" d="M176.8,8.2h3.3V34.8H196v6H173.4V11.7A3.46,3.46,0,0,1,176.8,8.2Z" transform="translate(-1.7 -7.1)"/><path class="cls-2" d="M218.1,8.2l11.7,32.6h-7.1l-2.2-6.7H208l-2.2,6.7h-7.2l10.9-30.5a3.08,3.08,0,0,1,3.2-2.2h5.4V8.2Zm-8.3,20.4h9l-4.5-13.9Z" transform="translate(-1.7 -7.1)"/><path class="cls-2" d="M233.3,10.6V8.2h25.6v5.7L241.1,35h17.4v5.9H233V35.2l17.7-21h-14A3.69,3.69,0,0,1,233.3,10.6Z" transform="translate(-1.7 -7.1)"/><path class="cls-2" d="M281.3,8.2L293,40.8h-7.1l-2.2-6.7H271.1l-2.2,6.7h-7.2l10.9-30.5a3.08,3.08,0,0,1,3.2-2.2h5.5V8.2Zm-8.4,20.4h9l-4.5-13.9Z" transform="translate(-1.7 -7.1)"/><path class="cls-2" d="M317.5,25.2a5.69,5.69,0,0,1,3.1,2.3,11.48,11.48,0,0,1,1,4.8l0.3,6.4a2.53,2.53,0,0,0,1.1,2.2h-7.3a4.55,4.55,0,0,1-.5-2c-0.1-.5-0.2-2.4-0.3-5.5-0.2-3.9-1-5.2-4.9-5.2h-7.1V40.9h-6.7V11.7a3.46,3.46,0,0,1,3.4-3.5H312c6.8,0,10.5,2.6,10.5,9.3C322.4,21.6,320.7,24.3,317.5,25.2Zm-6.4-11.4h-8.3v8.6h7.9c3.2,0,4.9-1.2,4.9-4.3S314.1,13.8,311.1,13.8Z" transform="translate(-1.7 -7.1)"/><path class="cls-2" d="M347.5,25.2a5.69,5.69,0,0,1,3.1,2.3,11.48,11.48,0,0,1,1,4.8l0.3,6.4a2.53,2.53,0,0,0,1.1,2.2h-7.3a4.55,4.55,0,0,1-.5-2c-0.1-.5-0.2-2.4-0.3-5.5-0.2-3.9-1-5.2-4.9-5.2h-7.1V40.9h-6.7V11.7a3.46,3.46,0,0,1,3.4-3.5H342c6.8,0,10.5,2.6,10.5,9.3C352.4,21.6,350.7,24.3,347.5,25.2Zm-6.4-11.4h-8.3v8.6h7.9c3.2,0,4.9-1.2,4.9-4.3S344.1,13.8,341.1,13.8Z" transform="translate(-1.7 -7.1)"/><path class="cls-2" d="M356.4,11.7c0-2.3,1.1-3.5,3.4-3.5H380v5.7H363v7h12.7V23c0,2.3-1.1,3.4-3.5,3.4h-9.3v8.4h17v6H356.3V11.7h0.1Z" transform="translate(-1.7 -7.1)"/></g></svg>